<?xml version="1.0" encoding="UTF-8" standalone="no"?>
<!-- Created with Inkscape (http://www.inkscape.org/) -->

<svg
   version="1.1"
   id="svg1792"
   width="147.56596"
   height="56"
   viewBox="0 0 147.56597 56"
   sodipodi:docname="logo.svg"
   inkscape:version="1.2 (dc2aeda, 2022-05-15)"
   xmlns:inkscape="http://www.inkscape.org/namespaces/inkscape"
   xmlns:sodipodi="http://sodipodi.sourceforge.net/DTD/sodipodi-0.dtd"
   xmlns="http://www.w3.org/2000/svg"
   xmlns:svg="http://www.w3.org/2000/svg">
  <defs
     id="defs1796" />
  <sodipodi:namedview
     id="namedview1794"
     pagecolor="#505050"
     bordercolor="#eeeeee"
     borderopacity="1"
     inkscape:showpageshadow="0"
     inkscape:pageopacity="0"
     inkscape:pagecheckerboard="0"
     inkscape:deskcolor="#505050"
     showgrid="false"
     inkscape:zoom="0.66915869"
     inkscape:cx="301.8716"
     inkscape:cy="141.22211"
     inkscape:window-width="1680"
     inkscape:window-height="997"
     inkscape:window-x="0"
     inkscape:window-y="25"
     inkscape:window-maximized="1"
     inkscape:current-layer="g1800">
    <inkscape:page
       x="0"
       y="0"
       id="page1798"
       width="147.56596"
       height="56" />
  </sodipodi:namedview>
  <g
     id="g1800"
     inkscape:groupmode="layer"
     inkscape:label="Page 1"
     transform="matrix(1.3333333,0,0,-1.3333333,-138.04573,557.45572)">
    <path
       d="m 104.29714,396.2184 c 2.36795,0 2.60399,1.14977 3.14607,3.21195 l 3.34661,12.03687 c 0.23603,0.80913 0.81033,2.66843 0.81033,3.47876 0,1.62347 -1.48618,1.28474 -2.87338,1.35289 l 0.30397,1.14861 c 1.72454,-0.0329 3.45001,-0.10226 5.1734,-0.13472 1.75705,0.0325 3.54928,0.1018 5.27268,0.13472 l -0.30492,-1.14861 c -2.36471,0 -2.60187,-1.21818 -3.14394,-3.27778 l -3.17623,-11.56432 c -0.2372,-0.73871 -0.60701,-2.16115 -0.60701,-2.87274 0,-1.85924 2.06073,-2.02919 3.4802,-2.02919 3.88774,0 5.81263,1.45515 7.36908,4.97078 h 1.28475 l -1.79342,-6.45607 c -4.59703,0.0344 -9.15929,0.10131 -13.75726,0.13541 -1.62207,-0.0341 -3.20982,-0.10106 -4.83397,-0.13541 z"
       style="fill:#1a1a18;fill-opacity:1;fill-rule:nonzero;stroke:none;stroke-width:0.17434"
       id="path1802" />
    <path
       d="m 129.14478,398.92349 c 0,-0.98052 0.47418,-2.1987 1.62416,-2.1987 3.07492,0 5.13682,6.76211 5.13682,9.19567 0,1.08347 -0.60675,1.92721 -1.79228,1.92721 -2.97379,0 -4.9687,-6.52699 -4.9687,-8.92418 z m 8.31626,10.74892 v 0 h 3.5136 l -2.53377,-9.05774 c -0.1704,-0.57549 -0.54019,-1.9606 -0.54019,-2.50243 0,-0.40623 0.16712,-1.1834 0.64244,-1.1834 1.0466,0 2.02644,2.26404 2.5015,3.04264 l 0.71045,-0.3065 c -0.91401,-2.1273 -2.70535,-4.96637 -5.27476,-4.96637 -1.28587,0 -2.16416,1.01344 -2.16416,2.26265 l 0.10106,1.21681 -0.0656,0.0696 c -1.01418,-1.89335 -2.77118,-3.54904 -5.07095,-3.54904 -2.83914,0 -4.19292,2.26265 -4.19292,4.90188 0,4.36079 3.41456,10.10667 8.28403,10.10667 1.58773,0 2.73778,-0.77718 3.34335,-2.19798 z"
       style="fill:#1a1a18;fill-opacity:1;fill-rule:nonzero;stroke:none;stroke-width:0.17434"
       id="path1804" />
    <path
       d="m 147.32936,402.00068 c 0,-0.94737 0.50778,-1.92808 1.58867,-1.92808 2.39924,0 3.41456,4.69901 3.41456,6.49011 0,0.94647 -0.30185,2.12799 -1.45396,2.12799 -2.5349,0.16995 -3.54927,-5.30603 -3.54927,-6.69002 z m 4.80062,-11.86874 v 0 c 0,3.92418 -10.14102,1.11755 -10.14102,6.08646 0,2.13169 1.92701,3.21195 3.78419,3.58244 -1.28382,0.81383 -2.19571,1.96174 -2.19571,3.55041 0,3.95551 3.41338,6.35591 7.09971,6.35591 1.38393,0 2.73544,-0.27082 3.85183,-1.1493 0.67705,0.77623 1.72478,1.62209 2.80685,1.62209 0.91283,0 1.72434,-0.54094 1.72434,-1.55394 0,-0.67932 -0.57455,-1.15117 -1.25228,-1.15117 -0.91283,0 -1.11569,0.77836 -1.68791,0.77836 -0.30397,0 -0.64458,-0.26945 -0.87942,-0.47344 0.57545,-0.81058 0.8428,-1.69003 0.8428,-2.66869 0,-2.63739 -1.82356,-5.13959 -4.3608,-5.8836 -0.81057,-0.23696 -1.6879,-0.30398 -2.63527,-0.30398 h -1.55413 c -0.74475,0 -2.66982,0 -2.66982,-1.15071 0,-1.18152 1.92507,-1.28264 2.70204,-1.38626 3.11177,-0.40322 7.77442,-0.84166 7.77442,-4.96776 0,-3.8208 -4.15719,-5.40715 -7.40135,-5.40715 -2.60515,0 -7.60725,0.91164 -7.60725,4.32621 0,1.28261 0.87827,2.26432 2.16323,2.26432 0.74587,0 1.35383,-0.33946 1.79341,-0.91167 -0.74469,-0.10225 -1.35359,-0.77697 -1.35359,-1.55853 0,-2.32904 3.07492,-2.97148 4.86833,-2.97148 1.8938,0 4.3274,0.64244 4.3274,2.97148"
       style="fill:#1a1a18;fill-opacity:1;fill-rule:nonzero;stroke:none;stroke-width:0.17434"
       id="path1806" />
    <path
       d="m 171.57048,403.31903 c -0.37396,-1.35427 -1.08322,-4.05681 -1.08322,-5.37606 0,-0.40529 0.0679,-1.04754 0.6079,-1.04754 0.94855,0 1.92701,2.33204 2.2676,2.9745 l 0.63924,-0.23717 c -0.80829,-2.12867 -2.3993,-4.93415 -5.00003,-4.93415 -1.38606,0 -2.19752,1.1815 -2.19752,2.46809 0,0.87733 0.13471,1.72245 0.30072,2.49828 l -0.0649,0.0691 c -1.04754,-2.30002 -3.1783,-5.03546 -5.95154,-5.03546 -1.55346,0 -2.77,1.01344 -2.77,2.66956 0,1.18483 0.57454,2.90497 0.94855,4.05614 l 1.04541,3.58244 c 0.16926,0.47413 0.50778,1.42055 0.50778,1.96243 0,0.37213 -0.16719,0.70922 -0.57335,0.70922 -1.01651,0 -2.0297,-2.06167 -2.53748,-2.80567 l -0.60979,0.30304 c 1.11757,2.13099 2.63828,4.53139 5.30697,4.53139 1.28797,0 2.29912,-0.84651 2.29912,-2.16436 0,-1.1155 -0.53905,-2.80755 -0.91191,-3.92097 l -0.81034,-2.43262 c -0.23715,-0.71132 -0.94528,-2.67074 -0.94528,-3.41643 0,-0.60608 0.40415,-0.87735 0.97982,-0.87735 2.77094,0 5.07214,7.26847 5.77903,9.46629 l 1.01532,3.07462 h 3.64946 z"
       style="fill:#1a1a18;fill-opacity:1;fill-rule:nonzero;stroke:none;stroke-width:0.17434"
       id="path1808" />
    <path
       d="m 176.57258,400.51218 c 0.43751,1.51958 1.38393,4.53001 1.38393,6.05053 0,0.37307 -0.17157,0.91213 -0.64037,0.91213 -0.9149,0 -1.89472,-2.09508 -2.26987,-2.83909 l -0.67446,0.27058 c 0.91371,2.16322 2.43655,4.80083 5.07208,4.80083 1.48944,0 2.16302,-0.87873 2.16302,-2.33339 l -0.17138,-1.92629 -0.0992,-0.64222 0.0691,-0.07 c 1.11429,2.40339 3.17734,4.97191 6.08526,4.97191 1.72434,0 2.7364,-0.94529 2.7364,-2.63761 0,-1.11455 -0.47206,-2.73776 -0.81146,-3.81753 l -0.64344,-1.96174 c -0.23396,-0.70877 -1.11569,-2.97424 -1.11569,-3.65153 0,-0.30393 0.23948,-0.74332 0.5778,-0.74332 0.94525,0 2.06073,2.19614 2.46834,2.83864 l 0.67241,-0.37074 c -0.97871,-1.99516 -2.66756,-4.66472 -5.17019,-4.66472 -1.41734,0 -2.43266,0.98096 -2.43266,2.39831 0,0.94711 0.53883,2.80641 0.84187,3.75146 l 0.67797,2.02943 c 0.26939,0.84513 1.11638,3.17642 1.11638,3.95365 0,0.44052 -0.30398,0.84694 -0.74682,0.84694 -2.93694,-0.0686 -4.76603,-6.15278 -5.50964,-8.24805 l -1.48644,-4.2931 h -3.55135 z"
       style="fill:#1a1a18;fill-opacity:1;fill-rule:nonzero;stroke:none;stroke-width:0.17434"
       id="path1810" />
    <path
       d="m 196.07965,398.92349 c 0,-0.98052 0.47206,-2.1987 1.62323,-2.1987 3.0749,0 5.1377,6.76211 5.1377,9.19567 0,1.08347 -0.60764,1.92721 -1.79109,1.92721 -2.97468,0 -4.96984,-6.52699 -4.96984,-8.92418 z m 8.31652,10.74892 v 0 h 3.51655 l -2.53697,-9.05774 c -0.16814,-0.57549 -0.54,-1.9606 -0.54,-2.50243 0,-0.40623 0.16806,-1.1834 0.64338,-1.1834 1.04778,0 2.02736,2.26409 2.50036,3.04264 l 0.7104,-0.3065 c -0.91282,-2.1273 -2.70411,-4.96637 -5.27149,-4.96637 -1.28588,0 -2.1653,1.01344 -2.1653,2.26265 l 0.10225,1.21681 -0.0689,0.0696 c -1.01619,-1.89335 -2.77206,-3.54904 -5.07093,-3.54904 -2.83909,0 -4.19061,2.26265 -4.19061,4.90188 0,4.36079 3.41343,10.10667 8.28083,10.10667 1.58867,0 2.73891,-0.77718 3.3466,-2.19798 z"
       style="fill:#1a1a18;fill-opacity:1;fill-rule:nonzero;stroke:none;stroke-width:0.17434"
       id="path1812" />
    <path
       d="m 211.27303,414.06588 c 0.4301,0 0.81473,0.0326 0.81473,0.54578 0,0.41364 -0.37836,0.49128 -0.73082,0.49128 h -0.68861 v -1.03706 z m -0.6047,-1.87621 v 0 h -0.50778 v 3.34247 h 1.27408 c 0.78902,0 1.18012,-0.29123 1.18012,-0.95088 0,-0.5991 -0.37513,-0.85901 -0.86642,-0.91835 l 0.9504,-1.47324 h -0.56784 l -0.88059,1.44843 h -0.58197 z m 0.61117,-0.74356 v 0 c 1.30955,0 2.3441,1.02688 2.3441,2.42173 0,1.37307 -1.03455,2.40762 -2.3441,2.40762 -1.32577,0 -2.36051,-1.03455 -2.36051,-2.40762 0,-1.39485 1.03474,-2.42173 2.36051,-2.42173 z m -2.94245,2.42173 v 0 c 0,1.6643 1.3482,2.89078 2.94245,2.89078 1.58107,0 2.92927,-1.22648 2.92927,-2.89078 0,-1.67817 -1.3482,-2.90376 -2.92927,-2.90376 -1.59425,0 -2.94245,1.22559 -2.94245,2.90376"
       style="fill:#1a1a18;fill-opacity:1;fill-rule:nonzero;stroke:none;stroke-width:0.17434"
       id="path1814" />
    <path
       d="m 103.83715,396.86227 c 2.3677,0 2.60393,1.15003 3.14606,3.21214 l 3.34661,12.03644 c 0.23604,0.80939 0.81058,2.66863 0.81058,3.47921 0,1.62326 -1.48643,1.28499 -2.87342,1.3527 l 0.30372,1.14904 c 1.72458,-0.0333 3.45006,-0.10269 5.17344,-0.1349 1.75681,0.0322 3.5493,0.10155 5.27268,0.1349 l -0.30511,-1.14904 c -2.3645,0 -2.60167,-1.21774 -3.14375,-3.27759 l -3.17647,-11.56475 c -0.23696,-0.73804 -0.60677,-2.16091 -0.60677,-2.8725 0,-1.85924 2.06073,-2.02945 3.4804,-2.02945 3.88756,0 5.81243,1.45535 7.36889,4.97077 h 1.28474 l -1.79366,-6.45581 c -4.59657,0.0343 -9.15904,0.1013 -13.75701,0.13586 -1.62208,-0.0346 -3.20961,-0.10157 -4.83378,-0.13586 z"
       style="fill:#4db1e5;fill-opacity:1;fill-rule:nonzero;stroke:none;stroke-width:0.17434"
       id="path1816" />
    <path
       d="m 128.6848,399.56757 c 0,-0.98096 0.47412,-2.19889 1.62415,-2.19889 3.07511,0 5.13683,6.76211 5.13683,9.19611 0,1.08277 -0.60682,1.92675 -1.7923,1.92675 -2.97378,0 -4.96868,-6.52704 -4.96868,-8.92397 z m 8.31625,10.74868 v 0 h 3.5138 l -2.53398,-9.05749 c -0.17019,-0.57569 -0.54,-1.96037 -0.54,-2.50269 0,-0.40642 0.16693,-1.1834 0.6425,-1.1834 1.04635,0 2.02595,2.26459 2.50149,3.0427 l 0.71016,-0.30631 c -0.91396,-2.12749 -2.7053,-4.96663 -5.27475,-4.96663 -1.28583,0 -2.16436,1.01325 -2.16436,2.26246 l 0.10155,1.21705 -0.0659,0.07 c -1.01414,-1.89404 -2.77089,-3.54954 -5.07115,-3.54954 -2.83863,0 -4.19249,2.26246 -4.19249,4.90195 0,4.36055 3.41457,10.10665 8.28404,10.10665 1.58755,0 2.73753,-0.77716 3.34315,-2.19752 z"
       style="fill:#4db1e5;fill-opacity:1;fill-rule:nonzero;stroke:none;stroke-width:0.17434"
       id="path1818" />
    <path
       d="m 146.8696,402.64456 c 0,-0.94736 0.50754,-1.92814 1.58868,-1.92814 2.399,0 3.41432,4.69907 3.41432,6.49062 0,0.94647 -0.30166,2.12729 -1.45396,2.12729 -2.5349,0.17064 -3.54904,-5.30579 -3.54904,-6.68977 z m 4.80057,-11.86854 v 0 c 0,3.92416 -10.1412,1.1178 -10.1412,6.08625 0,2.13214 1.92696,3.21214 3.78418,3.58265 -1.28356,0.81384 -2.19549,1.96129 -2.19549,3.54998 0,3.9555 3.41343,6.35613 7.09949,6.35613 1.38395,0 2.73545,-0.2708 3.85208,-1.14885 0.6768,0.7758 1.72453,1.6216 2.80661,1.6216 0.91282,0 1.72434,-0.54069 1.72434,-1.55389 0,-0.67887 -0.5743,-1.15116 -1.25229,-1.15116 -0.91282,0 -1.11544,0.77809 -1.6879,0.77809 -0.30398,0 -0.64433,-0.26918 -0.87942,-0.47298 0.57544,-0.81033 0.84279,-1.69024 0.84279,-2.66869 0,-2.63715 -1.82356,-5.13978 -4.36079,-5.88384 -0.81032,-0.23697 -1.68791,-0.30374 -2.63527,-0.30374 h -1.55414 c -0.74474,0 -2.66963,0 -2.66963,-1.15092 0,-1.18155 1.92489,-1.28262 2.7021,-1.38624 3.11152,-0.40278 7.77393,-0.84142 7.77393,-4.96757 0,-3.82099 -4.15699,-5.40739 -7.40111,-5.40739 -2.60518,0 -7.60724,0.91193 -7.60724,4.32624 0,1.28263 0.87853,2.26453 2.16322,2.26453 0.7459,0 1.35359,-0.3394 1.79368,-0.91188 -0.74475,-0.10224 -1.3541,-0.77697 -1.3541,-1.55832 0,-2.32899 3.07516,-2.97173 4.86858,-2.97173 1.89355,0 4.32758,0.64274 4.32758,2.97173"
       style="fill:#4db1e5;fill-opacity:1;fill-rule:nonzero;stroke:none;stroke-width:0.17434"
       id="path1820" />
    <path
       d="m 171.11024,403.96268 c -0.37396,-1.35359 -1.08322,-4.05657 -1.08322,-5.37607 0,-0.40504 0.0679,-1.04729 0.6079,-1.04729 0.94855,0 1.92701,2.33199 2.2676,2.97448 l 0.63924,-0.23721 c -0.8085,-2.12842 -2.3993,-4.93416 -5.00003,-4.93416 -1.38602,0 -2.19776,1.18157 -2.19776,2.46839 0,0.87735 0.13495,1.72222 0.30096,2.49824 l -0.0647,0.0693 c -1.04778,-2.3005 -3.17854,-5.03596 -5.95154,-5.03596 -1.553,0 -2.77,1.01325 -2.77,2.66987 0,1.18454 0.57456,2.90471 0.9485,4.05588 l 1.04546,3.5824 c 0.16927,0.47417 0.50754,1.42061 0.50754,1.96293 0,0.37188 -0.16719,0.70878 -0.57337,0.70878 -1.01624,0 -2.02944,-2.06167 -2.53697,-2.80523 l -0.61004,0.30253 c 1.11757,2.13081 2.6383,4.53144 5.30673,4.53144 1.28797,0 2.29913,-0.84606 2.29913,-2.16461 0,-1.11523 -0.53887,-2.80755 -0.91192,-3.92097 l -0.81034,-2.4324 c -0.23717,-0.71134 -0.94528,-2.6705 -0.94528,-3.4164 0,-0.60583 0.40415,-0.87733 0.97963,-0.87733 2.77113,0 5.07233,7.26847 5.77928,9.46604 l 1.01526,3.07487 h 3.64946 z"
       style="fill:#4db1e5;fill-opacity:1;fill-rule:nonzero;stroke:none;stroke-width:0.17434"
       id="path1822" />
    <path
       d="m 176.11235,401.15626 c 0.4375,1.51958 1.38373,4.5298 1.38373,6.05078 0,0.37282 -0.17113,0.91169 -0.64018,0.91169 -0.9149,0 -1.89472,-2.09508 -2.26967,-2.83864 l -0.67466,0.27013 c 0.91375,2.16322 2.4368,4.80081 5.07208,4.80081 1.48944,0 2.16302,-0.87871 2.16302,-2.33342 l -0.17133,-1.92626 -0.0993,-0.64244 0.0691,-0.07 c 1.11431,2.4034 3.17736,4.97216 6.08533,4.97216 1.72429,0 2.73635,-0.94529 2.73635,-2.63759 0,-1.11455 -0.47206,-2.73753 -0.81146,-3.81729 l -0.64344,-1.96199 c -0.23396,-0.70881 -1.11544,-2.97449 -1.11544,-3.65152 0,-0.30349 0.23928,-0.74332 0.57755,-0.74332 0.94529,0 2.06073,2.19658 2.46834,2.83907 l 0.67241,-0.37098 c -0.97871,-1.99511 -2.66756,-4.66498 -5.17019,-4.66498 -1.41734,0 -2.43266,0.98103 -2.43266,2.39857 0,0.94717 0.53907,2.80641 0.84187,3.75146 l 0.67797,2.02943 c 0.26918,0.84538 1.11638,3.17648 1.11638,3.95344 0,0.44097 -0.30373,0.84696 -0.74682,0.84696 -2.93718,-0.0688 -4.76604,-6.15305 -5.5096,-8.24788 l -1.48648,-4.29327 h -3.55135 z"
       style="fill:#4db1e5;fill-opacity:1;fill-rule:nonzero;stroke:none;stroke-width:0.17434"
       id="path1824" />
    <path
       d="m 195.61941,399.56757 c 0,-0.98096 0.47206,-2.19889 1.62323,-2.19889 3.0749,0 5.13797,6.76211 5.13797,9.19611 0,1.08277 -0.60791,1.92675 -1.79155,1.92675 -2.9745,0 -4.96965,-6.52704 -4.96965,-8.92397 z m 8.31652,10.74868 v 0 h 3.51679 l -2.53721,-9.05749 c -0.16814,-0.57569 -0.54,-1.96037 -0.54,-2.50269 0,-0.40642 0.16806,-1.1834 0.64338,-1.1834 1.04754,0 2.02736,2.26459 2.50061,3.0427 l 0.71015,-0.30631 c -0.91282,-2.12749 -2.70411,-4.96663 -5.27149,-4.96663 -1.28588,0 -2.1653,1.01325 -2.1653,2.26246 l 0.10244,1.21705 -0.0691,0.07 c -1.01619,-1.89404 -2.77205,-3.54954 -5.07093,-3.54954 -2.83909,0 -4.19061,2.26246 -4.19061,4.90195 0,4.36055 3.41343,10.10665 8.28083,10.10665 1.58867,0 2.73865,-0.77716 3.34661,-2.19752 z"
       style="fill:#4db1e5;fill-opacity:1;fill-rule:nonzero;stroke:none;stroke-width:0.17434"
       id="path1826" />
    <path
       d="m 210.85845,414.41966 c 0.4301,0 0.81478,0.0325 0.81478,0.54558 0,0.41385 -0.37816,0.49129 -0.73062,0.49129 h -0.68886 v -1.03687 z m -0.6047,-1.87664 v 0 h -0.50753 v 3.34246 h 1.27407 c 0.78903,0 1.18014,-0.29078 1.18014,-0.95062 0,-0.59911 -0.37514,-0.85926 -0.86666,-0.91841 l 0.95062,-1.47343 h -0.56782 l -0.88061,1.44887 h -0.58221 z m 0.61122,-0.74356 v 0 c 1.30952,0 2.3443,1.02733 2.3443,2.42174 0,1.3735 -1.03478,2.40784 -2.3443,2.40784 -1.32557,0 -2.3603,-1.03434 -2.3603,-2.40784 0,-1.39441 1.03473,-2.42174 2.3603,-2.42174 z m -2.9425,2.42174 v 0 c 0,1.66428 1.34844,2.89078 2.9425,2.89078 1.58126,0 2.92947,-1.2265 2.92947,-2.89078 0,-1.67818 -1.34821,-2.90334 -2.92947,-2.90334 -1.59406,0 -2.9425,1.22516 -2.9425,2.90334"
       style="fill:#4db1e5;fill-opacity:1;fill-rule:nonzero;stroke:none;stroke-width:0.17434"
       id="path1828" />
    <path
       d="m 119.71749,381.7591 h 2.02133 c 0.49197,0 1.13982,0 1.47551,-0.20332 0.3666,-0.21799 0.65571,-0.61655 0.65571,-1.16277 0,-0.59334 -0.31229,-1.03781 -0.82749,-1.24878 v -0.0156 c 0.68699,-0.1405 1.06168,-0.65589 1.06168,-1.34292 0,-0.81961 -0.58566,-1.60004 -1.69394,-1.60004 h -2.6928 z m 0.74149,-2.3965 v 0 h 1.48297 c 0.84279,0 1.18659,0.30444 1.18659,0.8899 0,0.77233 -0.54666,0.88223 -1.18659,0.88223 h -1.48297 z m 0,-2.55205 v 0 h 1.85761 c 0.64017,0 1.04591,0.39001 1.04591,0.99886 0,0.72592 -0.58543,0.92883 -1.20983,0.92883 h -1.69369 z"
       style="fill:#1a1a18;fill-opacity:1;fill-rule:nonzero;stroke:none;stroke-width:0.17434"
       id="path1830" />
    <path
       d="m 129.69986,376.20127 c -0.11732,-0.0698 -0.26549,-0.10947 -0.47625,-0.10947 -0.34362,0 -0.562,0.18761 -0.562,0.62487 -0.36704,-0.42942 -0.8588,-0.62487 -1.42061,-0.62487 -0.73381,0 -1.33479,0.32854 -1.33479,1.13171 0,0.91375 0.67891,1.10876 1.36588,1.24135 0.73383,0.14074 1.35824,0.0935 1.35824,0.59333 0,0.57781 -0.47626,0.6717 -0.89755,0.6717 -0.562,0 -0.97613,-0.17227 -1.00697,-0.76536 h -0.66355 c 0.0389,0.99881 0.81171,1.35034 1.70947,1.35034 0.72597,0 1.51405,-0.16392 1.51405,-1.10877 v -2.07579 c 0,-0.31254 0,-0.45259 0.21122,-0.45259 0.0542,0 0.11687,0.008 0.20286,0.0389 z m -1.0772,2.06863 v 0 c -0.25762,-0.18735 -0.75724,-0.195 -1.20216,-0.27339 -0.43707,-0.0777 -0.81176,-0.2337 -0.81176,-0.72591 0,-0.43732 0.37469,-0.59288 0.78044,-0.59288 0.87412,0 1.23348,0.54579 1.23348,0.91283 z"
       style="fill:#1a1a18;fill-opacity:1;fill-rule:nonzero;stroke:none;stroke-width:0.17434"
       id="path1832" />
    <path
       d="m 131.15826,376.69304 2.43563,2.94296 h -2.27935 v 0.58497 h 3.13771 v -0.45257 l -2.4665,-2.99723 h 2.57616 v -0.58547 h -3.40365 z"
       style="fill:#1a1a18;fill-opacity:1;fill-rule:nonzero;stroke:none;stroke-width:0.17434"
       id="path1834" />
    <path
       d="m 139.84546,377.46556 c -0.17944,-0.88939 -0.81982,-1.37376 -1.72503,-1.37376 -1.28795,0 -1.89655,0.8899 -1.93574,2.1236 0,1.20983 0.79619,2.09947 1.89655,2.09947 1.42872,0 1.86579,-1.33506 1.82684,-2.31044 h -3.0211 c -0.0234,-0.7028 0.3749,-1.32671 1.25688,-1.32671 0.54647,0 0.92883,0.26503 1.0459,0.78784 z m -0.63992,1.12428 v 0 c -0.0313,0.63226 -0.50729,1.14005 -1.16323,1.14005 -0.69464,0 -1.10828,-0.52379 -1.15533,-1.14005 z m -0.79619,3.30189 v 0 h 0.85093 l -1.02273,-1.11617 h -0.49943 z"
       style="fill:#1a1a18;fill-opacity:1;fill-rule:nonzero;stroke:none;stroke-width:0.17434"
       id="path1836" />
    <path
       d="m 141.7648,380.22097 h 0.62417 v -0.63948 h 0.0158 c 0.281,0.49943 0.73383,0.73338 1.31138,0.73338 1.06168,0 1.38952,-0.60885 1.38952,-1.47506 v -2.65411 h -0.6636 v 2.73244 c 0,0.49133 -0.31207,0.81175 -0.81936,0.81175 -0.80409,0 -1.19456,-0.53931 -1.19456,-1.26503 v -2.27916 h -0.66331 z"
       style="fill:#1a1a18;fill-opacity:1;fill-rule:nonzero;stroke:none;stroke-width:0.17434"
       id="path1838" />
    <path
       d="m 149.01494,380.31487 c 1.28035,0 1.95946,-0.92835 1.95946,-2.11499 0,-1.1788 -0.67911,-2.10808 -1.95946,-2.10808 -1.28005,0 -1.95893,0.92928 -1.95893,2.10808 0,1.18664 0.67888,2.11499 1.95893,2.11499 z m 0,-3.63715 v 0 c 0.69489,0 1.25692,0.54579 1.25692,1.52216 0,0.98329 -0.56203,1.53001 -1.25692,1.53001 -0.69439,0 -1.25664,-0.54672 -1.25664,-1.53001 0,-0.97637 0.56225,-1.52216 1.25664,-1.52216"
       style="fill:#1a1a18;fill-opacity:1;fill-rule:nonzero;stroke:none;stroke-width:0.17434"
       id="path1840" />
    <path
       d="m 154.74371,376.1857 h -0.71045 l -1.49869,4.03527 h 0.74143 l 1.13195,-3.36382 h 0.0155 l 1.10087,3.36382 h 0.69467 z"
       style="fill:#1a1a18;fill-opacity:1;fill-rule:nonzero;stroke:none;stroke-width:0.17434"
       id="path1842" />
    <path
       d="m 161.57279,376.20127 c -0.11708,-0.0698 -0.26567,-0.10947 -0.47645,-0.10947 -0.34317,0 -0.56205,0.18761 -0.56205,0.62487 -0.36654,-0.42942 -0.85856,-0.62487 -1.42035,-0.62487 -0.73383,0 -1.33457,0.32854 -1.33457,1.13171 0,0.91375 0.67888,1.10876 1.36565,1.24135 0.73408,0.14074 1.35799,0.0935 1.35799,0.59333 0,0.57781 -0.476,0.6717 -0.89731,0.6717 -0.56174,0 -0.97587,-0.17227 -1.00671,-0.76536 h -0.6638 c 0.0392,0.99881 0.81196,1.35034 1.70927,1.35034 0.72596,0 1.51448,-0.16392 1.51448,-1.10877 v -2.07579 c 0,-0.31254 0,-0.45259 0.21054,-0.45259 0.0549,0 0.11752,0.008 0.20331,0.0389 z m -1.07743,2.06863 v 0 c -0.25757,-0.18735 -0.75701,-0.195 -1.20194,-0.27339 -0.43705,-0.0777 -0.81176,-0.2337 -0.81176,-0.72591 0,-0.43732 0.37471,-0.59288 0.78068,-0.59288 0.87433,0 1.23302,0.54579 1.23302,0.91283 z m -0.62437,3.62183 v 0 h 0.8509 l -1.02273,-1.11617 h -0.49943 z"
       style="fill:#1a1a18;fill-opacity:1;fill-rule:nonzero;stroke:none;stroke-width:0.17434"
       id="path1844" />
    <path
       d="m 169.43904,378.9256 c -0.10131,0.50753 -0.45259,0.80429 -0.99907,0.80429 -0.96035,0 -1.25692,-0.75725 -1.25692,-1.57731 0,-0.74148 0.33595,-1.47486 1.17879,-1.47486 0.64013,0 1.02293,0.37445 1.10847,0.98354 h 0.67887 c -0.14816,-0.98354 -0.76441,-1.56946 -1.77923,-1.56946 -1.23351,0 -1.88944,0.85881 -1.88944,2.06078 0,1.21002 0.62466,2.16229 1.90496,2.16229 0.91282,0 1.64688,-0.42897 1.74054,-1.38927 z"
       style="fill:#1a1a18;fill-opacity:1;fill-rule:nonzero;stroke:none;stroke-width:0.17434"
       id="path1846" />
    <path
       d="m 172.06086,381.7591 h 0.66337 v -2.13101 h 0.0155 c 0.21887,0.48391 0.78852,0.68678 1.27244,0.68678 1.06143,0 1.38928,-0.60885 1.38928,-1.47506 v -2.65411 h -0.66331 v 2.73244 c 0,0.49133 -0.31209,0.81175 -0.81987,0.81175 -0.80385,0 -1.19405,-0.53931 -1.19405,-1.26503 v -2.27916 h -0.66337 z"
       style="fill:#1a1a18;fill-opacity:1;fill-rule:nonzero;stroke:none;stroke-width:0.17434"
       id="path1848" />
    <path
       d="m 181.00543,377.46556 c -0.17988,-0.88939 -0.81962,-1.37376 -1.72497,-1.37376 -1.28802,0 -1.89686,0.8899 -1.93625,2.1236 0,1.20983 0.7964,2.09947 1.89706,2.09947 1.4287,0 1.86553,-1.33506 1.82633,-2.31044 h -3.02064 c -0.0232,-0.7028 0.37445,-1.32671 1.25667,-1.32671 0.54649,0 0.92929,0.26503 1.04611,0.78784 z m -0.64012,1.12428 v 0 c -0.0313,0.63226 -0.50754,1.14005 -1.16279,1.14005 -0.69489,0 -1.10872,-0.52379 -1.15556,-1.14005 z"
       style="fill:#1a1a18;fill-opacity:1;fill-rule:nonzero;stroke:none;stroke-width:0.17434"
       id="path1850" />
    <path
       d="m 182.92453,380.22097 h 0.6244 v -0.59288 h 0.0158 c 0.29631,0.45283 0.74914,0.68678 1.30373,0.68678 0.49132,0 0.9441,-0.195 1.10782,-0.68678 0.27333,0.42896 0.74979,0.68678 1.26498,0.68678 0.80386,0 1.34247,-0.33575 1.34247,-1.17064 v -2.95853 h -0.66359 v 2.64595 c 0,0.49992 -0.13261,0.89824 -0.78044,0.89824 -0.64012,0 -1.054,-0.40622 -1.054,-1.03039 v -2.5138 h -0.66336 v 2.64595 c 0,0.52355 -0.16392,0.89824 -0.75725,0.89824 -0.78828,0 -1.07719,-0.72616 -1.07719,-1.03039 v -2.5138 h -0.66335 z"
       style="fill:#1a1a18;fill-opacity:1;fill-rule:nonzero;stroke:none;stroke-width:0.17434"
       id="path1852" />
    <path
       d="m 191.44736,380.94714 h -0.66401 v 0.81196 h 0.66401 z m -0.66401,-0.72617 v 0 h 0.66401 v -4.03527 h -0.66401 z"
       style="fill:#1a1a18;fill-opacity:1;fill-rule:nonzero;stroke:none;stroke-width:0.17434"
       id="path1854" />
    <path
       d="m 197.09053,377.46556 c -0.17989,-0.88939 -0.81963,-1.37376 -1.72497,-1.37376 -1.28797,0 -1.89687,0.8899 -1.93626,2.1236 0,1.20983 0.79665,2.09947 1.89707,2.09947 1.42869,0 1.86571,-1.33506 1.82633,-2.31044 h -3.02065 c -0.0232,-0.7028 0.37469,-1.32671 1.25668,-1.32671 0.54648,0 0.92928,0.26503 1.04611,0.78784 z m -0.64013,1.12428 v 0 c -0.0313,0.63226 -0.50753,1.14005 -1.16279,1.14005 -0.69488,0 -1.10871,-0.52379 -1.15556,-1.14005 z"
       style="fill:#1a1a18;fill-opacity:1;fill-rule:nonzero;stroke:none;stroke-width:0.17434"
       id="path1856" />
  </g>
</svg>
