<?xml version="1.0" encoding="UTF-8" standalone="no"?>
<svg
   width="32"
   height="32"
   viewBox="0 0 32 32"
   version="1.1"
   id="svg1822"
   sodipodi:docname="house.svg"
   inkscape:version="1.2 (dc2aeda, 2022-05-15)"
   xmlns:inkscape="http://www.inkscape.org/namespaces/inkscape"
   xmlns:sodipodi="http://sodipodi.sourceforge.net/DTD/sodipodi-0.dtd"
   xmlns="http://www.w3.org/2000/svg"
   xmlns:svg="http://www.w3.org/2000/svg">
  <defs
     id="defs1826" />
  <sodipodi:namedview
     id="namedview1824"
     pagecolor="#505050"
     bordercolor="#eeeeee"
     borderopacity="1"
     inkscape:showpageshadow="0"
     inkscape:pageopacity="0"
     inkscape:pagecheckerboard="0"
     inkscape:deskcolor="#505050"
     showgrid="false"
     inkscape:zoom="24.28125"
     inkscape:cx="15.979408"
     inkscape:cy="16"
     inkscape:window-width="1680"
     inkscape:window-height="997"
     inkscape:window-x="0"
     inkscape:window-y="25"
     inkscape:window-maximized="1"
     inkscape:current-layer="g1820" />
  <g
     fill="none"
     fill-rule="evenodd"
     id="g1820">
    <circle
       fill-opacity=".15"
       fill="#003123"
       cx="16"
       cy="16"
       r="16"
       id="circle1816"
       style="fill:#eef0f4;fill-opacity:1" />
    <path
       d="M17.417 21.47v-3.18a.53.53 0 0 0-.53-.529h-2.12a.53.53 0 0 0-.529.53v3.179a.53.53 0 0 1-.53.53H10.53a.53.53 0 0 1-.53-.53v-6.123a.53.53 0 0 1 .173-.392l5.298-4.817a.53.53 0 0 1 .713 0l5.299 4.817c.11.1.173.243.173.392v6.123a.53.53 0 0 1-.53.53h-3.18a.53.53 0 0 1-.529-.53z"
       stroke="#003123"
       stroke-width="1.4"
       stroke-linecap="round"
       stroke-linejoin="round"
       id="path1818"
       style="stroke:#4db1e5;stroke-opacity:1" />
  </g>
</svg>
