<?xml version="1.0" encoding="UTF-8" standalone="no"?>
<svg
   width="16"
   height="15"
   viewBox="0 0 16 15"
   version="1.1"
   id="svg2548"
   sodipodi:docname="paper-plane.svg"
   inkscape:version="1.2 (dc2aeda, 2022-05-15)"
   xmlns:inkscape="http://www.inkscape.org/namespaces/inkscape"
   xmlns:sodipodi="http://sodipodi.sourceforge.net/DTD/sodipodi-0.dtd"
   xmlns="http://www.w3.org/2000/svg"
   xmlns:svg="http://www.w3.org/2000/svg">
  <defs
     id="defs2552" />
  <sodipodi:namedview
     id="namedview2550"
     pagecolor="#505050"
     bordercolor="#eeeeee"
     borderopacity="1"
     inkscape:showpageshadow="0"
     inkscape:pageopacity="0"
     inkscape:pagecheckerboard="0"
     inkscape:deskcolor="#505050"
     showgrid="false"
     inkscape:zoom="51.8"
     inkscape:cx="7.992278"
     inkscape:cy="7.5"
     inkscape:window-width="1680"
     inkscape:window-height="997"
     inkscape:window-x="0"
     inkscape:window-y="25"
     inkscape:window-maximized="1"
     inkscape:current-layer="g2546" />
  <g
     fill="none"
     fill-rule="evenodd"
     id="g2546">
    <path
       d="M.625 0h14.77v14.77H.625z"
       id="path2542" />
    <path
       d="M13.534 1.861a.924.924 0 0 0-.904-.235L1.88 4.658a.923.923 0 0 0-.145 1.723l4.497 2.13 3.074-3.075a.462.462 0 0 1 .653.653L6.885 9.163l2.13 4.497a.915.915 0 0 0 .91.524.916.916 0 0 0 .812-.669l3.032-10.75a.924.924 0 0 0-.235-.904z"
       fill="#15428F"
       fill-rule="nonzero"
       id="path2544"
       style="fill:#4db1e5;fill-opacity:1" />
  </g>
</svg>
