<?xml version="1.0" encoding="UTF-8" standalone="no"?>
<svg
   width="13"
   height="13"
   viewBox="0 0 13 13"
   version="1.1"
   id="svg7229"
   sodipodi:docname="phone.svg"
   inkscape:version="1.2 (dc2aeda, 2022-05-15)"
   xmlns:inkscape="http://www.inkscape.org/namespaces/inkscape"
   xmlns:sodipodi="http://sodipodi.sourceforge.net/DTD/sodipodi-0.dtd"
   xmlns="http://www.w3.org/2000/svg"
   xmlns:svg="http://www.w3.org/2000/svg">
  <defs
     id="defs7233" />
  <sodipodi:namedview
     id="namedview7231"
     pagecolor="#505050"
     bordercolor="#eeeeee"
     borderopacity="1"
     inkscape:showpageshadow="0"
     inkscape:pageopacity="0"
     inkscape:pagecheckerboard="0"
     inkscape:deskcolor="#505050"
     showgrid="false"
     inkscape:zoom="18.153846"
     inkscape:cx="6.5"
     inkscape:cy="6.5275424"
     inkscape:window-width="1680"
     inkscape:window-height="997"
     inkscape:window-x="0"
     inkscape:window-y="25"
     inkscape:window-maximized="1"
     inkscape:current-layer="svg7229" />
  <path
     d="M3.716 6.546A5.97 5.97 0 0 0 6.48 9.298c.18.085.39.069.554-.042l1.772-1.182a.566.566 0 0 1 .537-.05l3.315 1.422c.232.098.37.337.34.587A3.398 3.398 0 0 1 9.628 13 9.626 9.626 0 0 1 .001 3.374c0-1.71 1.27-3.153 2.967-3.37.25-.03.489.108.587.34l1.422 3.318a.566.566 0 0 1-.046.533L3.754 5.994a.561.561 0 0 0-.038.552z"
     fill="#003123"
     fill-rule="evenodd"
     id="path7227"
     style="fill:#4db1e5;fill-opacity:1" />
</svg>
